# xmcd
#
# Track frame offsets: 
#        150
#        17357
#        42427
#        57015
#        87215
#
# Disc length: 1373 seconds
#
# Revision: 0
# Processed by: cddbd v1.5.1PL0 Copyright (c) Steve Scherf et al.
# Submitted via: ExactAudioCopy v0.95a5
#
DISCID=2f055b05
DTITLE=Vykki Vox - Woman's Touch
DYEAR=1997
DGENRE=Blues
TTITLE0=Woman's Touch
TTITLE1=Alone
TTITLE2=Never Enough
TTITLE3=Undercover
TTITLE4=On The Run
EXTD=
EXTT0=
EXTT1=
EXTT2=
EXTT3=
EXTT4=
PLAYORDER=
